<mxfile host="app.diagrams.net" modified="2023-08-02T07:56:33.711Z" agent="Mozilla/5.0 (Windows NT 10.0; Win64; x64) AppleWebKit/537.36 (KHTML, like Gecko) Chrome/115.0.0.0 Safari/537.36 Edg/115.0.1901.188" etag="cC0038umAoDYNVRTk5wb" version="21.6.3" type="device">
  <diagram name="Page-1" id="vfURo5IGwf-hPZrHQgR8">
    <mxGraphModel dx="1379" dy="1965" grid="1" gridSize="10" guides="1" tooltips="1" connect="1" arrows="1" fold="1" page="1" pageScale="1" pageWidth="827" pageHeight="1169" math="0" shadow="0">
      <root>
        <mxCell id="0" />
        <mxCell id="1" parent="0" />
        <mxCell id="WmAkfROPilmBH8N0ha92-6" value="Fonction&amp;nbsp;entier ordre(entier a, entier b, entier c) " style="rounded=1;whiteSpace=wrap;html=1;arcSize=40;fontColor=#000000;fillColor=#ffffc0;strokeColor=#ff0000;" vertex="1" parent="1">
          <mxGeometry x="940" y="10" width="160" height="70" as="geometry" />
        </mxCell>
        <mxCell id="WmAkfROPilmBH8N0ha92-7" value="" style="edgeStyle=orthogonalEdgeStyle;html=1;verticalAlign=bottom;endArrow=open;endSize=8;strokeColor=#ff0000;rounded=0;" edge="1" source="WmAkfROPilmBH8N0ha92-6" parent="1">
          <mxGeometry relative="1" as="geometry">
            <mxPoint x="1020" y="110" as="targetPoint" />
          </mxGeometry>
        </mxCell>
        <mxCell id="WmAkfROPilmBH8N0ha92-8" value="entier resultatOrdre &amp;lt;-- a + b + c" style="rounded=1;whiteSpace=wrap;html=1;arcSize=40;fontColor=#000000;fillColor=#ffffc0;strokeColor=#ff0000;" vertex="1" parent="1">
          <mxGeometry x="940" y="110" width="160" height="50" as="geometry" />
        </mxCell>
        <mxCell id="WmAkfROPilmBH8N0ha92-9" value="" style="edgeStyle=orthogonalEdgeStyle;html=1;verticalAlign=bottom;endArrow=open;endSize=8;strokeColor=#ff0000;rounded=0;" edge="1" source="WmAkfROPilmBH8N0ha92-8" parent="1">
          <mxGeometry relative="1" as="geometry">
            <mxPoint x="1020" y="210" as="targetPoint" />
          </mxGeometry>
        </mxCell>
        <mxCell id="WmAkfROPilmBH8N0ha92-10" value="Retourner&amp;nbsp;&lt;br&gt;resultatOrdre" style="rounded=1;whiteSpace=wrap;html=1;arcSize=40;fontColor=#000000;fillColor=#ffffc0;strokeColor=#ff0000;" vertex="1" parent="1">
          <mxGeometry x="940" y="210" width="160" height="40" as="geometry" />
        </mxCell>
        <mxCell id="WmAkfROPilmBH8N0ha92-11" value="" style="edgeStyle=orthogonalEdgeStyle;html=1;verticalAlign=bottom;endArrow=open;endSize=8;strokeColor=#ff0000;rounded=0;" edge="1" source="WmAkfROPilmBH8N0ha92-10" parent="1">
          <mxGeometry relative="1" as="geometry">
            <mxPoint x="1020" y="310" as="targetPoint" />
          </mxGeometry>
        </mxCell>
        <mxCell id="WmAkfROPilmBH8N0ha92-12" value="Fin Fonction" style="rounded=1;whiteSpace=wrap;html=1;arcSize=40;fontColor=#000000;fillColor=#ffffc0;strokeColor=#ff0000;" vertex="1" parent="1">
          <mxGeometry x="940" y="310" width="160" height="40" as="geometry" />
        </mxCell>
        <mxCell id="WmAkfROPilmBH8N0ha92-14" value="Fonction reel CB(reel a, reel b, reel c) " style="rounded=1;whiteSpace=wrap;html=1;arcSize=40;fontColor=#000000;fillColor=#ffffc0;strokeColor=#ff0000;" vertex="1" parent="1">
          <mxGeometry x="720" y="10" width="160" height="70" as="geometry" />
        </mxCell>
        <mxCell id="WmAkfROPilmBH8N0ha92-15" value="" style="edgeStyle=orthogonalEdgeStyle;html=1;verticalAlign=bottom;endArrow=open;endSize=8;strokeColor=#ff0000;rounded=0;" edge="1" parent="1">
          <mxGeometry relative="1" as="geometry">
            <mxPoint x="800" y="110" as="targetPoint" />
            <mxPoint x="800" y="80" as="sourcePoint" />
          </mxGeometry>
        </mxCell>
        <mxCell id="WmAkfROPilmBH8N0ha92-16" value="entier resultatCB &amp;lt;--&amp;nbsp;a/(a + b + c)*100" style="rounded=1;whiteSpace=wrap;html=1;arcSize=40;fontColor=#000000;fillColor=#ffffc0;strokeColor=#ff0000;" vertex="1" parent="1">
          <mxGeometry x="720" y="110" width="160" height="50" as="geometry" />
        </mxCell>
        <mxCell id="WmAkfROPilmBH8N0ha92-17" value="" style="edgeStyle=orthogonalEdgeStyle;html=1;verticalAlign=bottom;endArrow=open;endSize=8;strokeColor=#ff0000;rounded=0;" edge="1" parent="1" source="WmAkfROPilmBH8N0ha92-16">
          <mxGeometry relative="1" as="geometry">
            <mxPoint x="800" y="210" as="targetPoint" />
          </mxGeometry>
        </mxCell>
        <mxCell id="WmAkfROPilmBH8N0ha92-18" value="Retourner&amp;nbsp;&lt;br&gt;resultatCB" style="rounded=1;whiteSpace=wrap;html=1;arcSize=40;fontColor=#000000;fillColor=#ffffc0;strokeColor=#ff0000;" vertex="1" parent="1">
          <mxGeometry x="720" y="210" width="160" height="40" as="geometry" />
        </mxCell>
        <mxCell id="WmAkfROPilmBH8N0ha92-19" value="" style="edgeStyle=orthogonalEdgeStyle;html=1;verticalAlign=bottom;endArrow=open;endSize=8;strokeColor=#ff0000;rounded=0;" edge="1" parent="1" source="WmAkfROPilmBH8N0ha92-18">
          <mxGeometry relative="1" as="geometry">
            <mxPoint x="800" y="310" as="targetPoint" />
          </mxGeometry>
        </mxCell>
        <mxCell id="WmAkfROPilmBH8N0ha92-20" value="Fin Fonction" style="rounded=1;whiteSpace=wrap;html=1;arcSize=40;fontColor=#000000;fillColor=#ffffc0;strokeColor=#ff0000;" vertex="1" parent="1">
          <mxGeometry x="720" y="310" width="160" height="40" as="geometry" />
        </mxCell>
        <mxCell id="WmAkfROPilmBH8N0ha92-21" value="Fonction reel cheque(reel a, reel b, reel c) " style="rounded=1;whiteSpace=wrap;html=1;arcSize=40;fontColor=#000000;fillColor=#ffffc0;strokeColor=#ff0000;" vertex="1" parent="1">
          <mxGeometry x="540" y="10" width="160" height="70" as="geometry" />
        </mxCell>
        <mxCell id="WmAkfROPilmBH8N0ha92-22" value="" style="edgeStyle=orthogonalEdgeStyle;html=1;verticalAlign=bottom;endArrow=open;endSize=8;strokeColor=#ff0000;rounded=0;" edge="1" parent="1">
          <mxGeometry relative="1" as="geometry">
            <mxPoint x="620" y="110" as="targetPoint" />
            <mxPoint x="620" y="80" as="sourcePoint" />
          </mxGeometry>
        </mxCell>
        <mxCell id="WmAkfROPilmBH8N0ha92-23" value="entier resultatCheque &amp;lt;--&amp;nbsp;a/(a + b + c)*100" style="rounded=1;whiteSpace=wrap;html=1;arcSize=40;fontColor=#000000;fillColor=#ffffc0;strokeColor=#ff0000;" vertex="1" parent="1">
          <mxGeometry x="540" y="110" width="160" height="50" as="geometry" />
        </mxCell>
        <mxCell id="WmAkfROPilmBH8N0ha92-24" value="" style="edgeStyle=orthogonalEdgeStyle;html=1;verticalAlign=bottom;endArrow=open;endSize=8;strokeColor=#ff0000;rounded=0;" edge="1" parent="1" source="WmAkfROPilmBH8N0ha92-23">
          <mxGeometry relative="1" as="geometry">
            <mxPoint x="620" y="210" as="targetPoint" />
          </mxGeometry>
        </mxCell>
        <mxCell id="WmAkfROPilmBH8N0ha92-25" value="Retourner&amp;nbsp;&lt;br&gt;resultatCheque" style="rounded=1;whiteSpace=wrap;html=1;arcSize=40;fontColor=#000000;fillColor=#ffffc0;strokeColor=#ff0000;" vertex="1" parent="1">
          <mxGeometry x="540" y="210" width="160" height="40" as="geometry" />
        </mxCell>
        <mxCell id="WmAkfROPilmBH8N0ha92-26" value="" style="edgeStyle=orthogonalEdgeStyle;html=1;verticalAlign=bottom;endArrow=open;endSize=8;strokeColor=#ff0000;rounded=0;" edge="1" parent="1" source="WmAkfROPilmBH8N0ha92-25">
          <mxGeometry relative="1" as="geometry">
            <mxPoint x="620" y="310" as="targetPoint" />
          </mxGeometry>
        </mxCell>
        <mxCell id="WmAkfROPilmBH8N0ha92-27" value="Fin Fonction" style="rounded=1;whiteSpace=wrap;html=1;arcSize=40;fontColor=#000000;fillColor=#ffffc0;strokeColor=#ff0000;" vertex="1" parent="1">
          <mxGeometry x="540" y="310" width="160" height="40" as="geometry" />
        </mxCell>
        <mxCell id="WmAkfROPilmBH8N0ha92-28" value="Fonction reel cheque(reel a, reel b, reel c) " style="rounded=1;whiteSpace=wrap;html=1;arcSize=40;fontColor=#000000;fillColor=#ffffc0;strokeColor=#ff0000;" vertex="1" parent="1">
          <mxGeometry x="540" y="10" width="160" height="70" as="geometry" />
        </mxCell>
        <mxCell id="WmAkfROPilmBH8N0ha92-29" value="" style="edgeStyle=orthogonalEdgeStyle;html=1;verticalAlign=bottom;endArrow=open;endSize=8;strokeColor=#ff0000;rounded=0;" edge="1" parent="1">
          <mxGeometry relative="1" as="geometry">
            <mxPoint x="620" y="110" as="targetPoint" />
            <mxPoint x="620" y="80" as="sourcePoint" />
          </mxGeometry>
        </mxCell>
        <mxCell id="WmAkfROPilmBH8N0ha92-30" value="entier resultatCheque &amp;lt;-- b/(a + b + c)*100" style="rounded=1;whiteSpace=wrap;html=1;arcSize=40;fontColor=#000000;fillColor=#ffffc0;strokeColor=#ff0000;" vertex="1" parent="1">
          <mxGeometry x="540" y="110" width="160" height="50" as="geometry" />
        </mxCell>
        <mxCell id="WmAkfROPilmBH8N0ha92-31" value="" style="edgeStyle=orthogonalEdgeStyle;html=1;verticalAlign=bottom;endArrow=open;endSize=8;strokeColor=#ff0000;rounded=0;" edge="1" parent="1" source="WmAkfROPilmBH8N0ha92-30">
          <mxGeometry relative="1" as="geometry">
            <mxPoint x="620" y="210" as="targetPoint" />
          </mxGeometry>
        </mxCell>
        <mxCell id="WmAkfROPilmBH8N0ha92-32" value="Retourner&amp;nbsp;&lt;br&gt;resultatCheque" style="rounded=1;whiteSpace=wrap;html=1;arcSize=40;fontColor=#000000;fillColor=#ffffc0;strokeColor=#ff0000;" vertex="1" parent="1">
          <mxGeometry x="540" y="210" width="160" height="40" as="geometry" />
        </mxCell>
        <mxCell id="WmAkfROPilmBH8N0ha92-33" value="" style="edgeStyle=orthogonalEdgeStyle;html=1;verticalAlign=bottom;endArrow=open;endSize=8;strokeColor=#ff0000;rounded=0;" edge="1" parent="1" source="WmAkfROPilmBH8N0ha92-32">
          <mxGeometry relative="1" as="geometry">
            <mxPoint x="620" y="310" as="targetPoint" />
          </mxGeometry>
        </mxCell>
        <mxCell id="WmAkfROPilmBH8N0ha92-34" value="Fin Fonction" style="rounded=1;whiteSpace=wrap;html=1;arcSize=40;fontColor=#000000;fillColor=#ffffc0;strokeColor=#ff0000;" vertex="1" parent="1">
          <mxGeometry x="540" y="310" width="160" height="40" as="geometry" />
        </mxCell>
        <mxCell id="WmAkfROPilmBH8N0ha92-35" value="Fonction reel virement(reel a, reel b, reel c) " style="rounded=1;whiteSpace=wrap;html=1;arcSize=40;fontColor=#000000;fillColor=#ffffc0;strokeColor=#ff0000;" vertex="1" parent="1">
          <mxGeometry x="360" y="10" width="160" height="70" as="geometry" />
        </mxCell>
        <mxCell id="WmAkfROPilmBH8N0ha92-36" value="" style="edgeStyle=orthogonalEdgeStyle;html=1;verticalAlign=bottom;endArrow=open;endSize=8;strokeColor=#ff0000;rounded=0;" edge="1" parent="1">
          <mxGeometry relative="1" as="geometry">
            <mxPoint x="440" y="110" as="targetPoint" />
            <mxPoint x="440" y="80" as="sourcePoint" />
          </mxGeometry>
        </mxCell>
        <mxCell id="WmAkfROPilmBH8N0ha92-37" value="entier resultatVirement &amp;lt;-- c/(a + b + c)*100" style="rounded=1;whiteSpace=wrap;html=1;arcSize=40;fontColor=#000000;fillColor=#ffffc0;strokeColor=#ff0000;" vertex="1" parent="1">
          <mxGeometry x="360" y="110" width="160" height="50" as="geometry" />
        </mxCell>
        <mxCell id="WmAkfROPilmBH8N0ha92-38" value="" style="edgeStyle=orthogonalEdgeStyle;html=1;verticalAlign=bottom;endArrow=open;endSize=8;strokeColor=#ff0000;rounded=0;" edge="1" parent="1" source="WmAkfROPilmBH8N0ha92-37">
          <mxGeometry relative="1" as="geometry">
            <mxPoint x="440" y="210" as="targetPoint" />
          </mxGeometry>
        </mxCell>
        <mxCell id="WmAkfROPilmBH8N0ha92-39" value="Retourner&amp;nbsp;&lt;br&gt;resultatVirement" style="rounded=1;whiteSpace=wrap;html=1;arcSize=40;fontColor=#000000;fillColor=#ffffc0;strokeColor=#ff0000;" vertex="1" parent="1">
          <mxGeometry x="360" y="210" width="160" height="40" as="geometry" />
        </mxCell>
        <mxCell id="WmAkfROPilmBH8N0ha92-40" value="" style="edgeStyle=orthogonalEdgeStyle;html=1;verticalAlign=bottom;endArrow=open;endSize=8;strokeColor=#ff0000;rounded=0;" edge="1" parent="1" source="WmAkfROPilmBH8N0ha92-39">
          <mxGeometry relative="1" as="geometry">
            <mxPoint x="440" y="310" as="targetPoint" />
          </mxGeometry>
        </mxCell>
        <mxCell id="WmAkfROPilmBH8N0ha92-41" value="Fin Fonction" style="rounded=1;whiteSpace=wrap;html=1;arcSize=40;fontColor=#000000;fillColor=#ffffc0;strokeColor=#ff0000;" vertex="1" parent="1">
          <mxGeometry x="360" y="310" width="160" height="40" as="geometry" />
        </mxCell>
        <mxCell id="WmAkfROPilmBH8N0ha92-45" value="" style="edgeStyle=orthogonalEdgeStyle;rounded=0;orthogonalLoop=1;jettySize=auto;html=1;" edge="1" parent="1" source="WmAkfROPilmBH8N0ha92-42" target="WmAkfROPilmBH8N0ha92-44">
          <mxGeometry relative="1" as="geometry" />
        </mxCell>
        <mxCell id="WmAkfROPilmBH8N0ha92-42" value="Ecrire &quot;nb de paiement par CB&quot;" style="rounded=1;whiteSpace=wrap;html=1;arcSize=40;fontColor=#000000;fillColor=#ffffc0;strokeColor=#ff0000;" vertex="1" parent="1">
          <mxGeometry x="80" y="50" width="120" height="40" as="geometry" />
        </mxCell>
        <mxCell id="WmAkfROPilmBH8N0ha92-47" value="" style="edgeStyle=orthogonalEdgeStyle;rounded=0;orthogonalLoop=1;jettySize=auto;html=1;" edge="1" parent="1" source="WmAkfROPilmBH8N0ha92-44" target="WmAkfROPilmBH8N0ha92-46">
          <mxGeometry relative="1" as="geometry" />
        </mxCell>
        <mxCell id="WmAkfROPilmBH8N0ha92-44" value="Lire nbCB" style="rounded=1;whiteSpace=wrap;html=1;arcSize=40;fontColor=#000000;fillColor=#ffffc0;strokeColor=#ff0000;" vertex="1" parent="1">
          <mxGeometry x="80" y="120" width="120" height="40" as="geometry" />
        </mxCell>
        <mxCell id="WmAkfROPilmBH8N0ha92-49" value="" style="edgeStyle=orthogonalEdgeStyle;rounded=0;orthogonalLoop=1;jettySize=auto;html=1;" edge="1" parent="1" source="WmAkfROPilmBH8N0ha92-46" target="WmAkfROPilmBH8N0ha92-48">
          <mxGeometry relative="1" as="geometry" />
        </mxCell>
        <mxCell id="WmAkfROPilmBH8N0ha92-46" value="Ecrire &quot;nb de paiement par cheque&quot;" style="rounded=1;whiteSpace=wrap;html=1;arcSize=40;fontColor=#000000;fillColor=#ffffc0;strokeColor=#ff0000;" vertex="1" parent="1">
          <mxGeometry x="70" y="200" width="140" height="40" as="geometry" />
        </mxCell>
        <mxCell id="WmAkfROPilmBH8N0ha92-51" value="" style="edgeStyle=orthogonalEdgeStyle;rounded=0;orthogonalLoop=1;jettySize=auto;html=1;" edge="1" parent="1" source="WmAkfROPilmBH8N0ha92-48" target="WmAkfROPilmBH8N0ha92-50">
          <mxGeometry relative="1" as="geometry" />
        </mxCell>
        <mxCell id="WmAkfROPilmBH8N0ha92-48" value="Lire nbCheque" style="rounded=1;whiteSpace=wrap;html=1;arcSize=40;fontColor=#000000;fillColor=#ffffc0;strokeColor=#ff0000;" vertex="1" parent="1">
          <mxGeometry x="70" y="280" width="140" height="40" as="geometry" />
        </mxCell>
        <mxCell id="WmAkfROPilmBH8N0ha92-53" value="" style="edgeStyle=orthogonalEdgeStyle;rounded=0;orthogonalLoop=1;jettySize=auto;html=1;" edge="1" parent="1" source="WmAkfROPilmBH8N0ha92-50" target="WmAkfROPilmBH8N0ha92-52">
          <mxGeometry relative="1" as="geometry" />
        </mxCell>
        <mxCell id="WmAkfROPilmBH8N0ha92-50" value="Ecrire &quot;nb de virements automatique&quot;" style="rounded=1;whiteSpace=wrap;html=1;arcSize=40;fontColor=#000000;fillColor=#ffffc0;strokeColor=#ff0000;" vertex="1" parent="1">
          <mxGeometry x="70" y="360" width="140" height="40" as="geometry" />
        </mxCell>
        <mxCell id="WmAkfROPilmBH8N0ha92-55" value="" style="edgeStyle=orthogonalEdgeStyle;rounded=0;orthogonalLoop=1;jettySize=auto;html=1;" edge="1" parent="1" source="WmAkfROPilmBH8N0ha92-52" target="WmAkfROPilmBH8N0ha92-54">
          <mxGeometry relative="1" as="geometry" />
        </mxCell>
        <mxCell id="WmAkfROPilmBH8N0ha92-52" value="Lire &quot;nbVirement&quot;" style="rounded=1;whiteSpace=wrap;html=1;arcSize=40;fontColor=#000000;fillColor=#ffffc0;strokeColor=#ff0000;" vertex="1" parent="1">
          <mxGeometry x="70" y="440" width="140" height="40" as="geometry" />
        </mxCell>
        <mxCell id="WmAkfROPilmBH8N0ha92-57" value="" style="edgeStyle=orthogonalEdgeStyle;rounded=0;orthogonalLoop=1;jettySize=auto;html=1;" edge="1" parent="1" source="WmAkfROPilmBH8N0ha92-54" target="WmAkfROPilmBH8N0ha92-56">
          <mxGeometry relative="1" as="geometry" />
        </mxCell>
        <mxCell id="WmAkfROPilmBH8N0ha92-54" value="Ecrire &quot;nb paiements CB&quot;, nbCB" style="rounded=1;whiteSpace=wrap;html=1;arcSize=40;fontColor=#000000;fillColor=#ffffc0;strokeColor=#ff0000;" vertex="1" parent="1">
          <mxGeometry x="70" y="520" width="140" height="40" as="geometry" />
        </mxCell>
        <mxCell id="WmAkfROPilmBH8N0ha92-59" value="" style="edgeStyle=orthogonalEdgeStyle;rounded=0;orthogonalLoop=1;jettySize=auto;html=1;" edge="1" parent="1" source="WmAkfROPilmBH8N0ha92-56" target="WmAkfROPilmBH8N0ha92-58">
          <mxGeometry relative="1" as="geometry" />
        </mxCell>
        <mxCell id="WmAkfROPilmBH8N0ha92-56" value="Ecrire &quot;nb cheque emis&quot;, nbCheque&amp;nbsp;" style="rounded=1;whiteSpace=wrap;html=1;arcSize=40;fontColor=#000000;fillColor=#ffffc0;strokeColor=#ff0000;" vertex="1" parent="1">
          <mxGeometry x="70" y="600" width="140" height="40" as="geometry" />
        </mxCell>
        <mxCell id="WmAkfROPilmBH8N0ha92-65" value="" style="edgeStyle=orthogonalEdgeStyle;rounded=0;orthogonalLoop=1;jettySize=auto;html=1;" edge="1" parent="1" source="WmAkfROPilmBH8N0ha92-58" target="WmAkfROPilmBH8N0ha92-64">
          <mxGeometry relative="1" as="geometry" />
        </mxCell>
        <mxCell id="WmAkfROPilmBH8N0ha92-58" value="Ecrire &quot;vous avez emis&quot;, ordre(nbCB, nbCheque, nbVirement), &quot;ordre de debit dont :&quot;&lt;br&gt;&lt;div style=&quot;background-color:#2f2f2f;padding:0px 0px 0px 2px;&quot;&gt;&lt;div style=&quot;color: rgb(170, 170, 170); font-family: Consolas; font-size: 10pt;&quot;&gt;&lt;p style=&quot;background-color:#373737;margin:0;&quot;&gt;&lt;span style=&quot;color:#f9faf4;&quot;&gt;&lt;/span&gt;&lt;/p&gt;&lt;/div&gt;&lt;/div&gt;" style="rounded=1;whiteSpace=wrap;html=1;arcSize=40;fontColor=#000000;fillColor=#ffffc0;strokeColor=#ff0000;" vertex="1" parent="1">
          <mxGeometry x="62.5" y="680" width="155" height="60" as="geometry" />
        </mxCell>
        <mxCell id="WmAkfROPilmBH8N0ha92-62" value="" style="ellipse;html=1;shape=startState;fillColor=#000000;strokeColor=#ff0000;" vertex="1" parent="1">
          <mxGeometry x="125" y="-40" width="30" height="30" as="geometry" />
        </mxCell>
        <mxCell id="WmAkfROPilmBH8N0ha92-63" value="" style="edgeStyle=orthogonalEdgeStyle;html=1;verticalAlign=bottom;endArrow=open;endSize=8;strokeColor=#ff0000;rounded=0;" edge="1" source="WmAkfROPilmBH8N0ha92-62" parent="1">
          <mxGeometry relative="1" as="geometry">
            <mxPoint x="140" y="50" as="targetPoint" />
          </mxGeometry>
        </mxCell>
        <mxCell id="WmAkfROPilmBH8N0ha92-67" value="" style="edgeStyle=orthogonalEdgeStyle;rounded=0;orthogonalLoop=1;jettySize=auto;html=1;" edge="1" parent="1" source="WmAkfROPilmBH8N0ha92-64" target="WmAkfROPilmBH8N0ha92-66">
          <mxGeometry relative="1" as="geometry" />
        </mxCell>
        <mxCell id="WmAkfROPilmBH8N0ha92-64" value="Ecrire CB(nbCB, nbCheque, nbVirement) , &quot; % par Carte Bleue&quot;&lt;br&gt;&lt;div style=&quot;background-color:#2f2f2f;padding:0px 0px 0px 2px;&quot;&gt;&lt;div style=&quot;color: rgb(170, 170, 170); font-family: Consolas; font-size: 10pt;&quot;&gt;&lt;p style=&quot;background-color:#373737;margin:0;&quot;&gt;&lt;span style=&quot;color:#f9faf4;&quot;&gt;&lt;/span&gt;&lt;/p&gt;&lt;/div&gt;&lt;/div&gt;" style="rounded=1;whiteSpace=wrap;html=1;arcSize=40;fontColor=#000000;fillColor=#ffffc0;strokeColor=#ff0000;" vertex="1" parent="1">
          <mxGeometry x="62.5" y="780" width="155" height="60" as="geometry" />
        </mxCell>
        <mxCell id="WmAkfROPilmBH8N0ha92-69" value="" style="edgeStyle=orthogonalEdgeStyle;rounded=0;orthogonalLoop=1;jettySize=auto;html=1;" edge="1" parent="1" source="WmAkfROPilmBH8N0ha92-66" target="WmAkfROPilmBH8N0ha92-68">
          <mxGeometry relative="1" as="geometry" />
        </mxCell>
        <mxCell id="WmAkfROPilmBH8N0ha92-66" value="Ecrire cheque(nbCB, nbCheque, nbVirement) , &quot; % par cheque&quot;&lt;br&gt;&lt;div style=&quot;background-color:#2f2f2f;padding:0px 0px 0px 2px;&quot;&gt;&lt;div style=&quot;color: rgb(170, 170, 170); font-family: Consolas; font-size: 10pt;&quot;&gt;&lt;p style=&quot;background-color:#373737;margin:0;&quot;&gt;&lt;span style=&quot;color:#f9faf4;&quot;&gt;&lt;/span&gt;&lt;/p&gt;&lt;/div&gt;&lt;/div&gt;" style="rounded=1;whiteSpace=wrap;html=1;arcSize=40;fontColor=#000000;fillColor=#ffffc0;strokeColor=#ff0000;" vertex="1" parent="1">
          <mxGeometry x="62.5" y="880" width="155" height="60" as="geometry" />
        </mxCell>
        <mxCell id="WmAkfROPilmBH8N0ha92-71" value="" style="edgeStyle=orthogonalEdgeStyle;rounded=0;orthogonalLoop=1;jettySize=auto;html=1;" edge="1" parent="1" source="WmAkfROPilmBH8N0ha92-68" target="WmAkfROPilmBH8N0ha92-70">
          <mxGeometry relative="1" as="geometry" />
        </mxCell>
        <mxCell id="WmAkfROPilmBH8N0ha92-68" value="Ecrire virement(nbCB, nbCheque, nbVirement) , &quot; % par virement&quot;" style="whiteSpace=wrap;html=1;fillColor=#ffffc0;strokeColor=#ff0000;fontColor=#000000;rounded=1;arcSize=40;" vertex="1" parent="1">
          <mxGeometry x="60" y="980" width="160" height="60" as="geometry" />
        </mxCell>
        <mxCell id="WmAkfROPilmBH8N0ha92-70" value="" style="ellipse;html=1;shape=endState;fillColor=#000000;strokeColor=#ff0000;" vertex="1" parent="1">
          <mxGeometry x="125" y="1100" width="30" height="30" as="geometry" />
        </mxCell>
      </root>
    </mxGraphModel>
  </diagram>
</mxfile>
